<svg xmlns="http://www.w3.org/2000/svg" viewBox="0 0 68.5 70"><defs><style>.cls-1{fill:#fff;}</style></defs><title>calendar_white</title><g id="레이어_2" data-name="레이어 2"><g id="레이어_1-2" data-name="레이어 1"><path class="cls-1" d="M61,4.5H52.5V0H45.75V4.5H37.63V0H30.88V4.5H22.75V0H16V4.5H7.5A7.51,7.51,0,0,0,0,12V62.5A7.51,7.51,0,0,0,7.5,70H61a7.51,7.51,0,0,0,7.5-7.5V12A7.51,7.51,0,0,0,61,4.5Zm1.5,58A1.52,1.52,0,0,1,61,64H7.5A1.52,1.52,0,0,1,6,62.5V12a1.52,1.52,0,0,1,1.5-1.5H16v7h6.75v-7h8.13v7h6.75v-7h8.12v7H52.5v-7H61A1.52,1.52,0,0,1,62.5,12Z"/><rect class="cls-1" x="16" y="41.5" width="13.5" height="13.5"/></g></g></svg>